<svg width="1271" height="1034" viewBox="0 0 1271 1034" fill="none" xmlns="http://www.w3.org/2000/svg">
<g clip-path="url(#clip0_724_1167)">
<path fill-rule="evenodd" clip-rule="evenodd" d="M495.127 209.543C751.108 183.847 1017.23 251.648 1198.98 359.751C1379.14 466.906 1449.31 619.957 1437.04 769.775C1425.35 912.432 1390.9 1132.97 1161.4 1185.97L843.366 1063.77C809.407 1050.73 779.649 1028.66 757.298 999.961L613.279 815.017C579.852 772.092 530.38 744.636 476.269 738.981L344.823 725.244C298.953 720.451 256.149 699.951 223.659 667.217L86.5414 529.064C73.1845 515.606 60.2247 500.945 56.0007 482.46C50.4402 458.127 51.4255 419.669 90.65 378.784C177.931 287.808 6.57568 252.135 29.0536 147.928C34.8963 120.841 64.2347 106.964 91.9438 107.143C824.453 111.877 267.329 232.41 495.127 209.543Z" fill="url(#paint0_linear_724_1167)"/>
<path fill-rule="evenodd" clip-rule="evenodd" d="M1150.65 -202.205C1310.25 -211.309 1493.05 -251.591 1609.65 -161.136C1727.42 -69.7661 1676.43 85.0714 1692.15 217.881C1710.98 376.983 1849.65 569.092 1709.07 678.994C1544.14 641.201 1344.8 642.395 1150.65 641.201C1002.19 640.289 950.626 503.016 858.398 403.428C805.553 346.365 725.047 331.907 647.286 330.505C565.235 329.026 524.515 323.765 473.909 305.06C395.593 276.111 331.891 216.681 265.077 166.608C61.9562 14.3818 -260.025 -117.321 546.352 -222.505C669.334 -283.663 1007.43 -194.036 1150.65 -202.205Z" fill="#1945CF"/>
</g>
<defs>
<linearGradient id="paint0_linear_724_1167" x1="732.699" y1="107" x2="732.699" y2="1185.97" gradientUnits="userSpaceOnUse">
<stop stop-color="#6B76D8"/>
<stop offset="1" stop-color="#C96FDF" stop-opacity="0.6"/>
</linearGradient>
<clipPath id="clip0_724_1167">
<rect width="1271" height="1034" fill="white"/>
</clipPath>
</defs>
</svg>
