<svg width="375" height="423" viewBox="0 0 375 423" fill="none" xmlns="http://www.w3.org/2000/svg">
<g clip-path="url(#clip0_726_1171)">
<path fill-rule="evenodd" clip-rule="evenodd" d="M181.843 95.441C271.982 85.5576 365.693 111.635 429.694 153.215C493.134 194.43 517.844 253.297 513.521 310.921C509.406 365.791 497.274 450.615 416.459 471L336.441 437.419C303.593 423.634 275.237 400.965 254.558 371.959L237.04 347.388C216.661 318.803 185.11 300.208 150.231 296.227V296.227C120.391 292.82 92.8052 278.688 72.6075 256.46L49.6687 231.216C37.1802 217.472 23.3746 201.616 27.2665 183.458C28.7635 176.473 32.3055 168.628 39.4133 160.536C61.5998 135.276 36.3268 121.1 23.5302 100.092C8.54103 75.4837 41.7031 55.8132 70.5082 56.5247C281.546 61.7375 105.056 103.86 181.843 95.441Z" fill="url(#paint0_linear_726_1171)"/>
<path fill-rule="evenodd" clip-rule="evenodd" d="M382.136 -27.0045C431.727 -29.8352 488.525 -42.3607 524.754 -14.2343C561.349 14.1766 545.505 62.3226 550.389 103.619C556.239 153.091 599.327 212.826 555.645 247C504.399 235.248 442.461 235.619 382.136 235.248C347.698 235.036 330.04 211.191 311.377 186.233C284.302 150.026 231.645 144.818 187.442 135.324V135.324C147.276 126.697 122.022 98.3875 95.1469 67.3165C57.288 23.5472 24 -14.2343 24 -14.2343C24 -14.2343 337.635 -24.4643 382.136 -27.0045Z" fill="#1945CF"/>
</g>
<defs>
<linearGradient id="paint0_linear_726_1171" x1="265.5" y1="56" x2="265.5" y2="471" gradientUnits="userSpaceOnUse">
<stop stop-color="#6B76D8"/>
<stop offset="1" stop-color="#C96FDF" stop-opacity="0.6"/>
</linearGradient>
<clipPath id="clip0_726_1171">
<rect width="375" height="423" fill="white"/>
</clipPath>
</defs>
</svg>
