<svg width="138" height="24" viewBox="0 0 138 24" fill="none" xmlns="http://www.w3.org/2000/svg">
<g clip-path="url(#clip0_689_1136)">
<g clip-path="url(#clip1_689_1136)">
<mask id="mask0_689_1136" style="mask-type:luminance" maskUnits="userSpaceOnUse" x="0" y="1" width="22" height="22">
<path d="M22 1H0V23H22V1Z" fill="white"/>
</mask>
<g mask="url(#mask0_689_1136)">
<path d="M22 1H0V23H22V1Z" fill="white"/>
<path d="M0 3.14844C-2.54934e-08 1.96189 0.961887 1 2.14844 1H19.8516C21.0381 1 22 1.96189 22 3.14844V20.8516C22 22.0381 21.0381 23 19.8516 23H2.14844C0.961888 23 4.05831e-07 22.0381 3.80338e-07 20.8516L0 3.14844Z" fill="url(#paint0_linear_689_1136)"/>
<path d="M13.2344 4.8999L13.5991 5.21603H15.6443" stroke="white" stroke-width="0.35" stroke-linecap="round"/>
<path d="M8.9375 19.0078L15.6677 16.6025" stroke="white" stroke-width="0.35" stroke-linecap="round"/>
<path d="M15.668 5.20801V16.6027" stroke="white" stroke-width="0.35" stroke-linecap="round"/>
<path d="M9.44922 6.80594L15.667 5.20752" stroke="white" stroke-width="0.35"/>
<path d="M8.75349 6.23438H7.64844C7.25688 6.23438 6.93945 6.5518 6.93945 6.94336V18.3213C6.93945 18.7129 7.25688 19.0303 7.64844 19.0303H8.75349C9.14505 19.0303 9.46248 18.7129 9.46248 18.3213V6.94336C9.46248 6.5518 9.14505 6.23438 8.75349 6.23438Z" fill="url(#paint1_linear_689_1136)" stroke="white" stroke-width="0.35"/>
<path d="M7.71289 6.20313L13.1484 4.84961" stroke="white" stroke-width="0.35" stroke-linecap="round"/>
<path d="M10.5 6L11 7L12.5 6.49971L12 5.69971L10.5 6Z" fill="#6F85DF"/>
<path d="M10.2266 6.48242L10.1836 6.39648L10.3984 6.31055L10.6992 6.26758L10.7422 6.31055L10.2266 6.48242Z" fill="#6A80DF"/>
<path d="M11.043 6.0957L11.3867 6.00977L11.4297 6.11719L10.9355 6.24609L11.043 6.0957Z" fill="#6E84DE"/>
<path d="M10.2266 6.48242L10.1836 6.39648L10.6348 6.26758L10.6992 6.33203L10.2266 6.48242Z" fill="#6E84DF"/>
<path d="M11.5183 6.10671L11.8488 5.85543C11.87 5.83936 11.8937 5.82708 11.9191 5.81913V5.81913C11.9957 5.79512 12.0793 5.81288 12.1395 5.86599L12.3131 6.01902L12.3195 6.03177C12.422 6.23546 12.495 6.45273 12.5361 6.67701V6.67701L12.6511 7.30382C12.7058 7.60156 12.7333 7.90365 12.7333 8.20636L12.7333 9" stroke="white" stroke-width="0.18" stroke-linecap="round"/>
<path d="M11 9.5L11.5 9L11.9415 8.55853C11.9754 8.52457 12.0287 8.51955 12.0684 8.54656L12.7349 9" stroke="white" stroke-width="0.18" stroke-linecap="round"/>
<path d="M11.6875 6.06592C11.6875 6.10358 11.6885 6.13927 11.7014 6.17532C11.7131 6.20799 11.7298 6.24054 11.7441 6.27229C11.7555 6.29764 11.7667 6.32285 11.7761 6.34894C11.7778 6.35384 11.7799 6.3604 11.7833 6.36443C11.7924 6.37487 11.7754 6.33796 11.7704 6.32506C11.7601 6.29801 11.7514 6.26927 11.734 6.24599" stroke="white" stroke-width="0.1" stroke-linecap="round"/>
<path d="M10.2832 6.59961L10.6565 6.49991" stroke="white" stroke-width="0.3"/>
<path d="M10.2589 6.50806C10.2589 6.53128 10.2589 6.55451 10.2589 6.57773C10.2589 6.5801 10.2626 6.58725 10.2642 6.58176C10.2654 6.57747 10.2643 6.57137 10.2643 6.56699C10.2643 6.54662 10.2577 6.52242 10.2522 6.50269C10.2487 6.49018 10.2445 6.47862 10.2401 6.46658C10.2382 6.46117 10.2362 6.46041 10.243 6.45957C10.257 6.45782 10.2709 6.45069 10.2847 6.44763C10.3551 6.43214 10.426 6.4231 10.4966 6.41004C10.5174 6.40618 10.5369 6.39928 10.557 6.39258C10.5742 6.38687 10.5888 6.37612 10.6057 6.3705C10.6154 6.36726 10.63 6.36092 10.6403 6.36035C10.6425 6.36023 10.6314 6.36576 10.6295 6.36632C10.59 6.37808 10.5513 6.39102 10.5108 6.40004C10.4751 6.40796 10.4411 6.41579 10.4066 6.42749C10.3808 6.43626 10.3533 6.44527 10.3267 6.45107C10.3119 6.45427 10.2973 6.47315 10.2831 6.47315" stroke="white" stroke-width="0.1" stroke-linecap="round"/>
<path d="M10.1973 6.43823C10.2279 6.43823 10.259 6.43159 10.2886 6.42421C10.3291 6.41407 10.3683 6.40526 10.4094 6.39735C10.4356 6.39232 10.46 6.37982 10.4858 6.37318C10.5052 6.3682 10.5241 6.36192 10.5431 6.35558C10.5672 6.34754 10.5963 6.3335 10.6216 6.3335" stroke="white" stroke-width="0.1" stroke-linecap="round"/>
<path d="M10.1602 6.41675C10.1734 6.4151 10.1937 6.40537 10.2058 6.39929C10.2233 6.39054 10.2408 6.3857 10.2595 6.38049C10.2828 6.37403 10.3058 6.36558 10.3293 6.36035C10.3514 6.35545 10.3754 6.35094 10.3965 6.34275C10.4168 6.33484 10.4397 6.33121 10.4609 6.32604C10.4845 6.3203 10.5066 6.3099 10.5302 6.30455C10.55 6.30005 10.5709 6.29333 10.5898 6.28575C10.6007 6.2814 10.6216 6.27441 10.6328 6.27441" stroke="white" stroke-width="0.01" stroke-linecap="round"/>
<path d="M10.6138 6.30142C10.6032 6.30142 10.5995 6.30684 10.5908 6.30932C10.5763 6.31346 10.585 6.30616 10.5936 6.30425C10.6007 6.30269 10.6072 6.30375 10.6138 6.30082C10.6236 6.29644 10.6052 6.29861 10.6024 6.30082C10.5987 6.3038 10.585 6.30142 10.5802 6.30142C10.5726 6.30142 10.5635 6.30527 10.556 6.30694C10.54 6.31049 10.5244 6.32022 10.5077 6.32022C10.4957 6.32022 10.4743 6.3309 10.4634 6.33573C10.4461 6.34341 10.425 6.34653 10.407 6.35453C10.3765 6.36809 10.3416 6.37821 10.3091 6.3875C10.2797 6.3959 10.2484 6.41022 10.2177 6.41704C10.2143 6.41779 10.1745 6.42963 10.1745 6.42704C10.1745 6.42336 10.2083 6.40912 10.2136 6.40675C10.2249 6.40173 10.2402 6.39831 10.2526 6.39556C10.2666 6.39243 10.2811 6.38467 10.2955 6.38467C10.3103 6.38467 10.325 6.3748 10.3398 6.37393C10.346 6.37356 10.3517 6.36894 10.3586 6.36855C10.3648 6.36821 10.3771 6.36511 10.3828 6.36259C10.3957 6.35687 10.4151 6.34976 10.4297 6.34976C10.4483 6.34976 10.4659 6.33972 10.4843 6.33901C10.5007 6.33838 10.5188 6.32818 10.5359 6.32574C10.5584 6.32252 10.5861 6.31342 10.6071 6.3041C10.6151 6.30053 10.6235 6.29678 10.632 6.29396C10.6338 6.29333 10.6195 6.29907 10.6138 6.29873C10.6028 6.29809 10.6194 6.29067 10.6165 6.29067C10.6134 6.29067 10.596 6.29589 10.5956 6.29545C10.5941 6.29399 10.6385 6.27998 10.6015 6.29052C10.5875 6.29454 10.5694 6.29659 10.5559 6.30276C10.5449 6.30776 10.5266 6.31417 10.5144 6.31484C10.4975 6.31578 10.4813 6.33096 10.4647 6.33096C10.4475 6.33096 10.4256 6.34259 10.4091 6.34767C10.3983 6.35098 10.3853 6.35696 10.3742 6.35781C10.3634 6.35864 10.3533 6.36735 10.3425 6.36855C10.3072 6.37248 10.2741 6.39018 10.2391 6.39795C10.2274 6.40055 10.2057 6.40389 10.1969 6.41093C10.1916 6.4152 10.1797 6.41467 10.1733 6.41749C10.165 6.42121 10.1558 6.42495 10.1465 6.42495" stroke="white" stroke-width="0.01" stroke-linecap="round"/>
<path d="M10.2105 6.40578C10.2232 6.40578 10.2417 6.39437 10.2546 6.38967C10.2723 6.38326 10.2887 6.37087 10.3085 6.37087C10.3249 6.37087 10.3433 6.36358 10.3595 6.35998C10.3808 6.35525 10.4027 6.35159 10.424 6.34685C10.4381 6.34372 10.4203 6.35745 10.4173 6.36013C10.4114 6.36537 10.4005 6.36819 10.3931 6.36819C10.3833 6.36819 10.4071 6.35773 10.4119 6.35744C10.4209 6.35691 10.4272 6.35257 10.4361 6.35207C10.4526 6.35115 10.4773 6.3406 10.4925 6.33387C10.5067 6.32754 10.5256 6.31801 10.5408 6.31716C10.5486 6.31673 10.56 6.31048 10.5677 6.30776C10.5766 6.30457 10.5867 6.30055 10.5959 6.29851C10.6034 6.29683 10.6098 6.29182 10.6173 6.29016C10.6241 6.28865 10.601 6.29299 10.5959 6.29299C10.5881 6.29299 10.613 6.2877 10.613 6.28628C10.613 6.27975 10.5874 6.2899 10.5935 6.28747C10.5972 6.28598 10.616 6.27971 10.6039 6.2824C10.598 6.2837 10.5844 6.29194 10.5797 6.29568C10.5788 6.29645 10.6003 6.28783 10.6047 6.28434C10.6063 6.28304 10.6267 6.27363 10.616 6.27897C10.5956 6.28916 10.5743 6.30463 10.5509 6.30642C10.5256 6.30837 10.4944 6.31865 10.471 6.3285C10.4645 6.33122 10.4439 6.33884 10.4623 6.33268C10.4733 6.32902 10.4837 6.32321 10.4951 6.32253C10.4963 6.32246 10.5019 6.31987 10.5016 6.32C10.4963 6.32211 10.4898 6.32792 10.4857 6.33193C10.4801 6.33757 10.463 6.341 10.4804 6.33327C10.4821 6.33252 10.5029 6.31953 10.5029 6.32388C10.5029 6.33231 10.4652 6.33596 10.4589 6.33596C10.4157 6.33596 10.3781 6.35778 10.3365 6.36297C10.3248 6.36443 10.3135 6.3697 10.3018 6.37087C10.29 6.37206 10.2785 6.38097 10.2669 6.38161C10.2594 6.38203 10.2469 6.38604 10.24 6.38907C10.2296 6.39372 10.2158 6.39359 10.2051 6.39832C10.1975 6.40172 10.1454 6.40895 10.1445 6.41593C10.1443 6.41743 10.1579 6.41206 10.1589 6.41175C10.1662 6.40931 10.1739 6.40624 10.1809 6.4031C10.1942 6.39719 10.2076 6.39773 10.2218 6.39773C10.2546 6.39773 10.2905 6.39665 10.3219 6.38699C10.3361 6.38262 10.3506 6.37688 10.3649 6.37371C10.369 6.37279 10.3716 6.37183 10.3755 6.37072C10.3789 6.36974 10.3707 6.36781 10.3676 6.36953C10.3649 6.37103 10.3593 6.35506 10.3756 6.36416C10.3894 6.3718 10.3992 6.37087 10.4159 6.37087C10.4452 6.37087 10.4684 6.36694 10.4962 6.35744C10.5068 6.35383 10.5301 6.34874 10.5301 6.33462C10.5301 6.32746 10.514 6.33091 10.5086 6.33059C10.5027 6.33024 10.5082 6.32214 10.5086 6.3279C10.5089 6.33353 10.5053 6.33793 10.5005 6.34073C10.4697 6.35887 10.4317 6.35602 10.3964 6.36073C10.3653 6.36487 10.3352 6.37965 10.3072 6.39295C10.2937 6.39934 10.259 6.41259 10.2776 6.4219" stroke="white" stroke-width="0.01" stroke-linecap="round"/>
<path d="M11.0426 6.59954C11.0491 6.6077 11.067 6.65732 11.0635 6.61923C11.0606 6.58812 11.0544 6.5567 11.0479 6.52613C11.0411 6.4934 11.0503 6.54922 11.0524 6.55627C11.0657 6.60042 11.079 6.64503 11.0973 6.68742C11.0989 6.69097 11.103 6.70296 11.1011 6.69174C11.0985 6.67748 11.0921 6.66417 11.087 6.65071C11.0797 6.63146 11.0718 6.61252 11.0642 6.59342C11.0621 6.58824 11.069 6.60354 11.0721 6.60819C11.0795 6.6193 11.0887 6.62891 11.0963 6.63982C11.107 6.65515 11.1072 6.64846 11.107 6.63266C11.1069 6.62418 11.0952 6.57196 11.1002 6.56701C11.1012 6.56597 11.1012 6.5698 11.1017 6.57119C11.1037 6.57686 11.1058 6.58228 11.1087 6.5876C11.1142 6.59795 11.1204 6.60792 11.1258 6.61834C11.1299 6.62613 11.1393 6.64844 11.1393 6.62863C11.1393 6.60629 11.1338 6.585 11.1272 6.56373C11.1203 6.54165 11.1226 6.5639 11.1243 6.57447C11.1283 6.59843 11.1386 6.62176 11.1467 6.6446C11.1491 6.65127 11.1339 6.6166 11.131 6.61147C11.1248 6.60023 11.1095 6.56113 11.0951 6.55702C11.0943 6.55678 11.0948 6.6316 11.0952 6.63684C11.0973 6.65998 11.1005 6.68539 11.1069 6.70786C11.107 6.70815 11.1019 6.70104 11.1011 6.6998C11.0879 6.68077 11.0763 6.66041 11.0647 6.64042C11.0541 6.62228 11.0441 6.60386 11.0336 6.58566C11.0178 6.55809 11.0267 6.60773 11.0277 6.61535C11.0327 6.65485 11.0479 6.69616 11.0479 6.73605C11.0479 6.75109 11.011 6.7182 11.0062 6.71502C10.9843 6.70067 10.9602 6.67564 10.9351 6.66727C10.9233 6.66332 10.9297 6.68648 10.9304 6.69532C10.9324 6.72133 10.94 6.74769 10.9465 6.77291C10.9484 6.78029 10.9486 6.7679 10.9486 6.76604C10.9486 6.75716 10.9477 6.75051 10.9447 6.74202C10.9383 6.72366 10.9296 6.70832 10.9196 6.69144C10.9095 6.67426 10.8973 6.64841 10.8814 6.63594C10.8715 6.62813 10.8666 6.61096 10.8588 6.60088C10.8497 6.58926 10.8519 6.60164 10.8519 6.61088C10.8519 6.63523 10.8616 6.65631 10.8722 6.67742C10.8741 6.6813 10.8866 6.70392 10.8801 6.69219C10.8754 6.68365 10.8699 6.67304 10.8659 6.66399C10.8628 6.6569 10.8584 6.65032 10.8546 6.6437C10.8529 6.64069 10.8442 6.62077 10.8438 6.62639C10.8428 6.64384 10.8508 6.65708 10.8544 6.67339C10.8553 6.67728 10.8552 6.69622 10.86 6.69622C10.8637 6.69622 10.8669 6.69117 10.8686 6.68816C10.8748 6.67709 10.8875 6.66867 10.8964 6.65981C10.9304 6.62578 10.9619 6.5938 10.989 6.55388C10.9988 6.53953 11.0133 6.51773 11.0277 6.50748C11.0293 6.50631 11.0291 6.52752 11.0291 6.52792C11.0294 6.56933 11.0341 6.60941 11.0426 6.64997C11.0437 6.65519 11.0709 6.77648 11.0769 6.7735C11.0809 6.77151 11.0814 6.74383 11.0817 6.74142C11.0868 6.69538 11.0929 6.64969 11.1017 6.60416C11.1077 6.57278 11.1143 6.54164 11.1219 6.51062C11.1239 6.50268 11.1244 6.49011 11.1297 6.48331C11.1337 6.47816 11.1288 6.49679 11.1312 6.50286" stroke="#6F85DF" stroke-width="0.01" stroke-linecap="round"/>
<path d="M11.0547 6.60187C11.0547 6.61659 11.0955 6.73932 11.1123 6.72496C11.1178 6.72019 11.1161 6.69746 11.1165 6.69139C11.1176 6.67073 11.1191 6.65018 11.1191 6.62947C11.1191 6.62702 11.1163 6.59421 11.1097 6.60873C11.1052 6.61871 11.1075 6.63827 11.1097 6.64857C11.1143 6.66965 11.124 6.64061 11.1245 6.6338C11.126 6.61537 11.1313 6.58077 11.1085 6.57367C11.1015 6.57146 11.0923 6.57633 11.0923 6.58441C11.0923 6.60252 11.1406 6.61701 11.1406 6.60127C11.1406 6.57131 11.1053 6.54763 11.0875 6.5783C11.0845 6.58352 11.0785 6.60104 11.0821 6.60724C11.0869 6.61526 11.105 6.60871 11.1105 6.60456C11.1295 6.59012 11.0835 6.56577 11.0789 6.57502" stroke="#6F85DF" stroke-width="0.01" stroke-linecap="round"/>
<path d="M11.0885 6.52148C11.0885 6.54585 11.0885 6.57022 11.0885 6.59459C11.0885 6.60902 11.108 6.63035 11.0805 6.61966C11.0617 6.61236 11.0432 6.60484 11.0241 6.59802C11.0124 6.59384 10.9962 6.59668 10.9838 6.59668C10.9736 6.59668 10.9643 6.60316 10.9563 6.60951C10.9502 6.61444 10.9333 6.61859 10.9259 6.6207C10.9173 6.62317 10.91 6.62907 10.9017 6.63144C10.8981 6.63248 10.8906 6.63255 10.8877 6.63487C10.8815 6.63981 10.881 6.63696 10.8871 6.63696" stroke="#6F85DF" stroke-width="0.1" stroke-linecap="round"/>
<path d="M11.3092 6.24489C11.3385 6.24489 11.3581 6.23728 11.3764 6.21326C11.4142 6.16353 11.3216 6.15394 11.2904 6.15358C11.2826 6.15349 11.2636 6.15059 11.2714 6.16403C11.2828 6.18386 11.3003 6.19664 11.3227 6.19984C11.3392 6.20219 11.3511 6.2035 11.3495 6.18372C11.3483 6.16754 11.3047 6.1697 11.2937 6.1697C11.2763 6.1697 11.2797 6.16081 11.2797 6.14493C11.2797 6.08608 11.3513 6.05575 11.4006 6.04407C11.4173 6.04011 11.4342 6.03812 11.451 6.03333C11.4597 6.03086 11.4317 6.06501 11.4286 6.06914C11.412 6.0912 11.3933 6.11254 11.3737 6.1321C11.3621 6.14374 11.3487 6.15327 11.3364 6.16418C11.3352 6.16529 11.3243 6.17485 11.328 6.17507C11.3377 6.17564 11.3461 6.17045 11.3549 6.16716C11.3679 6.16229 11.3824 6.16037 11.3958 6.15627C11.4169 6.14981 11.4438 6.13917 11.457 6.12076C11.4612 6.11484 11.4931 6.08546 11.4752 6.09122C11.4382 6.10311 11.4001 6.11003 11.3615 6.11539C11.3492 6.11709 11.3416 6.12311 11.3307 6.12673" stroke="#6F85DF" stroke-width="0.1" stroke-linecap="round"/>
<path d="M11.7163 6.29883C11.7163 6.36462 11.7163 6.43042 11.7163 6.49621C11.7163 6.50688 11.7023 6.48142 11.7014 6.4798C11.6916 6.46385 11.6682 6.42357 11.6465 6.42236C11.6289 6.42139 11.6757 6.44223 11.6918 6.44922C11.702 6.45363 11.7295 6.46965 11.7339 6.45265C11.7437 6.41468 11.7485 6.37594 11.7485 6.33672C11.7485 6.31691 11.7489 6.30156 11.7378 6.2848C11.736 6.2822 11.723 6.2624 11.7309 6.27048C11.7569 6.29719 11.7822 6.32893 11.8045 6.35895C11.8138 6.3716 11.8274 6.39577 11.8264 6.41162C11.8263 6.41241 11.8079 6.40033 11.8049 6.39879C11.794 6.39324 11.7776 6.3906 11.7712 6.38059C11.7595 6.36221 11.7497 6.34363 11.7366 6.32583C11.7289 6.31546 11.7182 6.295 11.7055 6.29077" stroke="#6F85DF" stroke-width="0.1" stroke-linecap="round"/>
<path d="M11.7002 6.2798C11.7002 6.22809 11.6507 6.18967 11.6439 6.13896C11.6436 6.13676 11.6404 6.12719 11.6453 6.12986C11.6507 6.13286 11.6555 6.14166 11.6591 6.14627C11.6724 6.16316 11.6846 6.18086 11.6975 6.19804C11.7167 6.2236 11.7362 6.2481 11.7491 6.27712C11.7518 6.28315 11.755 6.29075 11.7564 6.29726C11.7578 6.30367 11.7528 6.29207 11.7512 6.28995C11.7417 6.27736 11.734 6.26163 11.727 6.24758C11.7142 6.22202 11.7026 6.19306 11.6861 6.1697C11.6774 6.15733 11.67 6.14374 11.6652 6.12941" stroke="#6F85DF" stroke-width="0.1" stroke-linecap="round"/>
<path d="M11.3418 6.0222C11.3733 6.0222 11.4043 6.01811 11.4349 6.01131C11.4596 6.00581 11.484 6.00072 11.5089 5.99595C11.5251 5.99285 11.5416 5.98729 11.5581 5.98729C11.5679 5.98729 11.5994 5.98168 11.5726 5.99251C11.5338 6.0082 11.4941 6.02202 11.4558 6.03892C11.4344 6.04832 11.41 6.05718 11.3907 6.07054C11.3844 6.07492 11.4057 6.067 11.4079 6.06652C11.4296 6.06175 11.4516 6.05821 11.4732 6.05309C11.4878 6.04965 11.5313 6.041 11.5164 6.041" stroke="#6F85DF" stroke-width="0.01" stroke-linecap="round"/>
<path d="M11.3418 6.01683C11.3609 6.01683 11.3791 6.00177 11.3982 6.00071C11.419 5.99956 11.4403 5.98521 11.4612 5.9846C11.4949 5.98361 11.5285 5.9658 11.5614 5.9658C11.5726 5.9658 11.621 5.95486 11.6265 5.9658" stroke="#6F85DF" stroke-width="0.01" stroke-linecap="round"/>
<path d="M11.3633 6.0113C11.3952 6.0113 11.4277 5.99097 11.4573 5.98041C11.479 5.97266 11.5094 5.97101 11.5325 5.97101C11.5473 5.97101 11.5612 5.96782 11.5754 5.96579C11.582 5.96485 11.6019 5.96564 11.5953 5.96564C11.5634 5.96564 11.5273 5.98144 11.497 5.99041C11.4726 5.99762 11.4489 6.00708 11.4253 6.01667C11.4218 6.01813 11.3907 6.02894 11.3907 6.03397C11.3907 6.03761 11.4957 6.00651 11.505 6.00384C11.5069 6.00329 11.5325 5.99543 11.522 5.99906C11.4934 6.00895 11.4653 6.0215 11.4382 6.03487C11.4261 6.04084 11.4144 6.04728 11.4027 6.05397C11.3967 6.05738 11.4162 6.05157 11.423 6.05009C11.4438 6.0455 11.4634 6.03814 11.4837 6.03159C11.489 6.02985 11.5019 6.02404 11.4919 6.03293C11.4889 6.0356 11.4622 6.05302 11.474 6.05755C11.4933 6.06498 11.5135 6.07086 11.5325 6.07843" stroke="#6F85DF" stroke-width="0.01" stroke-linecap="round"/>
<path d="M11.6797 5.99805C11.681 6.00822 11.696 6.02007 11.7012 6.02908C11.7091 6.04293 11.7213 6.05324 11.7286 6.06787C11.7473 6.10528 11.7662 6.14275 11.7859 6.17932C11.8161 6.2353 11.8325 6.29618 11.8554 6.35522C11.863 6.37478 11.8723 6.39915 11.873 6.42027C11.8734 6.43107 11.8794 6.48058 11.8865 6.48413" stroke="#6F85DF" stroke-width="0.01" stroke-linecap="round"/>
<path d="M11.6875 6.00879C11.6942 6.00963 11.709 6.03298 11.7157 6.03833C11.7224 6.04365 11.727 6.05505 11.7318 6.0625C11.738 6.07209 11.7457 6.08116 11.7493 6.09189C11.7559 6.11166 11.774 6.12899 11.7787 6.14978C11.7819 6.16438 11.7921 6.1911 11.8018 6.20349C11.8302 6.24002 11.8384 6.2899 11.8534 6.33314C11.8615 6.35652 11.8726 6.3784 11.8803 6.40148C11.8841 6.41298 11.8907 6.427 11.8916 6.43907C11.8924 6.45007 11.8938 6.47262 11.8997 6.48145" stroke="#6F85DF" stroke-width="0.01" stroke-linecap="round"/>
<path d="M11.6553 6.03277C11.6553 6.06952 11.6628 6.10351 11.6693 6.13959C11.6728 6.15856 11.677 6.17738 11.6807 6.19629C11.681 6.19771 11.6848 6.21509 11.6835 6.21509C11.6804 6.21509 11.6696 6.19296 11.6681 6.19062C11.6517 6.16476 11.6354 6.139 11.6206 6.11214C11.6042 6.08261 11.5859 6.05439 11.5694 6.02501C11.5671 6.02094 11.5595 6.00742 11.5694 6.01397" stroke="#6F85DF" stroke-width="0.01" stroke-linecap="round"/>
<path d="M11.6504 6.01953C11.6616 6.02093 11.6772 6.05203 11.6847 6.06041C11.6983 6.07547 11.704 6.09633 11.7163 6.11218C11.7307 6.13061 11.7444 6.14895 11.7524 6.17112C11.7614 6.19565 11.7794 6.21756 11.7868 6.24243C11.8003 6.28862 11.8228 6.33265 11.8302 6.38074C11.838 6.43153 11.8733 6.47643 11.8733 6.52979" stroke="#6F85DF" stroke-width="0.09" stroke-linecap="round"/>
<path d="M11.3675 6.01684C11.3768 6.0158 11.3902 6.00929 11.3984 6.00475C11.4016 6.00297 11.4232 5.99804 11.4132 5.99804C11.4032 5.99804 11.3957 6.00281 11.3863 6.00475C11.3804 6.00599 11.3578 6.01508 11.3716 6.00744C11.3869 5.99891 11.4091 5.99792 11.426 5.99207C11.443 5.98618 11.4667 5.97656 11.4844 5.97656C11.5008 5.97656 11.5181 5.96313 11.5354 5.96313C11.5585 5.96313 11.5824 5.95507 11.6065 5.95507C11.6233 5.95507 11.642 5.95221 11.6564 5.96044C11.6701 5.96829 11.6832 6.00099 11.6898 6.01415" stroke="#6F85DF" stroke-width="0.02" stroke-linecap="round"/>
<path d="M11.668 5.99219C11.694 6.02152 11.7155 6.04998 11.7336 6.08618C11.7425 6.10394 11.7515 6.122 11.7605 6.13989C11.773 6.16503 11.7798 6.19408 11.7942 6.21837C11.8157 6.25463 11.8661 6.37074 11.8504 6.33161C11.8411 6.30827 11.8267 6.28327 11.8237 6.25806C11.8226 6.24816 11.8147 6.2299 11.8063 6.22314C11.7972 6.21587 11.7827 6.19192 11.7781 6.18152C11.7737 6.17169 11.7641 6.16091 11.7579 6.15198C11.7509 6.14175 11.7446 6.12705 11.7411 6.11513C11.739 6.10805 11.7401 6.09803 11.7372 6.09155C11.7353 6.08737 11.729 6.07503 11.733 6.08678C11.7399 6.10658 11.7528 6.12384 11.7626 6.14258C11.7765 6.16937 11.7916 6.19593 11.8054 6.223C11.8207 6.25308 11.8333 6.28319 11.8464 6.31415C11.8517 6.32656 11.8567 6.34005 11.8586 6.35339C11.8599 6.36166 11.8656 6.36859 11.8666 6.37637C11.8693 6.39799 11.8788 6.41881 11.8801 6.44067C11.8807 6.44984 11.8794 6.4223 11.878 6.41322C11.8732 6.38009 11.8621 6.35432 11.8412 6.32803C11.8118 6.29105 11.7522 6.2773 11.7102 6.2597C11.6989 6.25498 11.6874 6.25064 11.6787 6.24194" stroke="#6F85DF" stroke-width="0.02" stroke-linecap="round"/>
<path d="M11.5586 5.93848C11.6463 5.93848 11.7156 6.0186 11.7654 6.08081" stroke="white" stroke-width="0.02" stroke-linecap="round"/>
<path d="M11.6641 5.96293C11.6505 5.96293 11.6384 5.95558 11.6265 5.95488C11.6137 5.95413 11.6016 5.9546 11.5889 5.95279C11.574 5.95066 11.5581 5.95219 11.5431 5.95219C11.5063 5.95219 11.4812 5.96763 11.4492 5.98442" stroke="white" stroke-width="0.02" stroke-linecap="round"/>
<path d="M11.9529 5.81002L10.453 6.16679" stroke="white" stroke-width="0.18" stroke-linecap="round"/>
</g>
<path d="M10.0477 6.51562L10.1799 6.29529C10.2258 6.21872 10.3085 6.17187 10.3978 6.17187V6.17187C10.5151 6.17187 10.6172 6.25209 10.6448 6.36604L10.7856 6.94531L10.8798 7.40854C10.9597 7.80185 11 8.2022 11 8.60355L11 9.5" stroke="white" stroke-width="0.18" stroke-linecap="round"/>
<path d="M10.9618 6.56634C10.9437 6.56634 10.9246 6.56356 10.909 6.5722C10.8933 6.58094 10.8724 6.5798 10.8593 6.59282C10.8558 6.5964 10.8524 6.60935 10.8524 6.61474C10.8524 6.61532 10.8508 6.59233 10.8487 6.59976C10.8466 6.60718 10.8513 6.59228 10.8446 6.58891C10.8383 6.58578 10.8446 6.60026 10.8446 6.60541" stroke="#6F85DF" stroke-width="0.1" stroke-linecap="round"/>
<path d="M11.6788 6.27711C11.6287 6.27711 11.5851 6.2758 11.5468 6.23892C11.53 6.22272 11.5348 6.19647 11.5282 6.17555C11.5259 6.16855 11.5059 6.13316 11.5208 6.12889C11.5445 6.12213 11.506 6.1531 11.5039 6.15515C11.4924 6.16618 11.4748 6.17797 11.5052 6.16948C11.5519 6.15638 11.598 6.14778 11.6436 6.13258" stroke="#6F85DF" stroke-width="0.1" stroke-linecap="round"/>
<path d="M11.6441 6.12891C11.6205 6.12891 11.59 6.13402 11.569 6.12109C11.556 6.11311 11.5442 6.08203 11.5699 6.08203C11.5932 6.08203 11.6168 6.07812 11.6406 6.07812C11.6752 6.07812 11.7207 6.08041 11.7535 6.06727C11.7657 6.06239 11.7854 6.06462 11.7986 6.0625C11.8123 6.06031 11.8533 6.05469 11.8394 6.05469" stroke="#6F85DF" stroke-width="0.1" stroke-linecap="round"/>
<rect width="0.5" height="0.1" transform="matrix(0.970833 -0.239755 -0.239755 -0.970833 11.502 6.11621)" fill="#6F85DF"/>
</g>
<path d="M27.7969 19V3.72727H33.5242C34.6975 3.72727 35.6819 3.94602 36.4773 4.38352C37.2777 4.82102 37.8818 5.42258 38.2895 6.18821C38.7021 6.94886 38.9084 7.81392 38.9084 8.78338C38.9084 9.76278 38.7021 10.6328 38.2895 11.3935C37.8768 12.1541 37.2678 12.7532 36.4624 13.1907C35.657 13.6232 34.6652 13.8395 33.4869 13.8395H29.6911V11.565H33.114C33.8001 11.565 34.3619 11.4457 34.7994 11.207C35.2369 10.9684 35.5601 10.6403 35.7689 10.2227C35.9826 9.80504 36.0895 9.32528 36.0895 8.78338C36.0895 8.24148 35.9826 7.7642 35.7689 7.35156C35.5601 6.93892 35.2344 6.61825 34.7919 6.38956C34.3544 6.15589 33.7902 6.03906 33.0991 6.03906H30.5636V19H27.7969ZM43.8918 12.2884V19H41.1922V3.72727H43.8322V9.49183H43.9664C44.2349 8.84553 44.65 8.33594 45.2118 7.96307C45.7785 7.58523 46.4994 7.39631 47.3744 7.39631C48.1699 7.39631 48.8634 7.56285 49.455 7.89595C50.0467 8.22905 50.504 8.71626 50.8272 9.3576C51.1553 9.99893 51.3194 10.782 51.3194 11.7067V19H48.6198V12.1243C48.6198 11.3537 48.4209 10.7546 48.0232 10.3271C47.6305 9.89453 47.0786 9.67827 46.3677 9.67827C45.8904 9.67827 45.4628 9.78267 45.085 9.99148C44.7121 10.1953 44.4188 10.4911 44.205 10.8789C43.9962 11.2667 43.8918 11.7365 43.8918 12.2884ZM59.0676 19.2237C57.949 19.2237 56.9795 18.9776 56.1592 18.4854C55.3389 17.9933 54.7025 17.3047 54.2501 16.4197C53.8027 15.5348 53.579 14.5007 53.579 13.3175C53.579 12.1342 53.8027 11.0977 54.2501 10.2077C54.7025 9.31783 55.3389 8.62678 56.1592 8.13459C56.9795 7.6424 57.949 7.39631 59.0676 7.39631C60.1862 7.39631 61.1557 7.6424 61.976 8.13459C62.7963 8.62678 63.4302 9.31783 63.8776 10.2077C64.33 11.0977 64.5562 12.1342 64.5562 13.3175C64.5562 14.5007 64.33 15.5348 63.8776 16.4197C63.4302 17.3047 62.7963 17.9933 61.976 18.4854C61.1557 18.9776 60.1862 19.2237 59.0676 19.2237ZM59.0825 17.0611C59.6891 17.0611 60.1962 16.8945 60.6038 16.5614C61.0115 16.2234 61.3148 15.771 61.5136 15.2042C61.7175 14.6374 61.8194 14.006 61.8194 13.31C61.8194 12.609 61.7175 11.9751 61.5136 11.4084C61.3148 10.8366 61.0115 10.3817 60.6038 10.0437C60.1962 9.70561 59.6891 9.53658 59.0825 9.53658C58.4611 9.53658 57.944 9.70561 57.5314 10.0437C57.1237 10.3817 56.818 10.8366 56.6141 11.4084C56.4153 11.9751 56.3158 12.609 56.3158 13.31C56.3158 14.006 56.4153 14.6374 56.6141 15.2042C56.818 15.771 57.1237 16.2234 57.5314 16.5614C57.944 16.8945 58.4611 17.0611 59.0825 17.0611ZM72.5673 7.54545V9.63352H65.9825V7.54545H72.5673ZM67.6082 4.80114H70.3078V15.5547C70.3078 15.9176 70.3624 16.196 70.4718 16.3899C70.5862 16.5788 70.7353 16.7081 70.9193 16.7777C71.1032 16.8473 71.307 16.8821 71.5308 16.8821C71.6998 16.8821 71.8539 16.8697 71.9931 16.8448C72.1373 16.82 72.2467 16.7976 72.3212 16.7777L72.7761 18.8881C72.632 18.9379 72.4256 18.9925 72.1572 19.0522C71.8937 19.1119 71.5705 19.1467 71.1877 19.1566C70.5116 19.1765 69.9026 19.0746 69.3607 18.8509C68.8188 18.6222 68.3887 18.2692 68.0705 17.7919C67.7573 17.3146 67.6032 16.718 67.6082 16.0021V4.80114ZM79.6985 19.2237C78.5799 19.2237 77.6104 18.9776 76.7901 18.4854C75.9698 17.9933 75.3334 17.3047 74.881 16.4197C74.4335 15.5348 74.2098 14.5007 74.2098 13.3175C74.2098 12.1342 74.4335 11.0977 74.881 10.2077C75.3334 9.31783 75.9698 8.62678 76.7901 8.13459C77.6104 7.6424 78.5799 7.39631 79.6985 7.39631C80.8171 7.39631 81.7865 7.6424 82.6068 8.13459C83.4272 8.62678 84.061 9.31783 84.5085 10.2077C84.9609 11.0977 85.1871 12.1342 85.1871 13.3175C85.1871 14.5007 84.9609 15.5348 84.5085 16.4197C84.061 17.3047 83.4272 17.9933 82.6068 18.4854C81.7865 18.9776 80.8171 19.2237 79.6985 19.2237ZM79.7134 17.0611C80.3199 17.0611 80.827 16.8945 81.2347 16.5614C81.6424 16.2234 81.9456 15.771 82.1445 15.2042C82.3483 14.6374 82.4502 14.006 82.4502 13.31C82.4502 12.609 82.3483 11.9751 82.1445 11.4084C81.9456 10.8366 81.6424 10.3817 81.2347 10.0437C80.827 9.70561 80.3199 9.53658 79.7134 9.53658C79.0919 9.53658 78.5749 9.70561 78.1622 10.0437C77.7546 10.3817 77.4488 10.8366 77.245 11.4084C77.0461 11.9751 76.9467 12.609 76.9467 13.31C76.9467 14.006 77.0461 14.6374 77.245 15.2042C77.4488 15.771 77.7546 16.2234 78.1622 16.5614C78.5749 16.8945 79.0919 17.0611 79.7134 17.0611ZM95.8978 7.92578C95.8282 7.2745 95.5348 6.7674 95.0178 6.40447C94.5057 6.04155 93.8395 5.86008 93.0192 5.86008C92.4425 5.86008 91.9478 5.94709 91.5352 6.12109C91.1226 6.2951 90.8069 6.53125 90.5881 6.82954C90.3694 7.12784 90.2575 7.4684 90.2525 7.85121C90.2525 8.16939 90.3246 8.44531 90.4688 8.67898C90.6179 8.91264 90.8193 9.11151 91.0728 9.27557C91.3264 9.43466 91.6073 9.56889 91.9155 9.67827C92.2238 9.78764 92.5345 9.87962 92.8477 9.95419L94.2795 10.3121C94.8562 10.4464 95.4106 10.6278 95.9425 10.8565C96.4794 11.0852 96.9592 11.3736 97.3818 11.7216C97.8093 12.0696 98.1474 12.4897 98.396 12.9819C98.6446 13.4741 98.7689 14.0508 98.7689 14.712C98.7689 15.6069 98.5402 16.3949 98.0828 17.076C97.6254 17.7521 96.9642 18.2816 96.0991 18.6644C95.239 19.0423 94.1975 19.2312 92.9745 19.2312C91.7863 19.2312 90.7547 19.0472 89.8797 18.6793C89.0096 18.3114 88.3285 17.7745 87.8363 17.0685C87.3491 16.3626 87.0856 15.5025 87.0459 14.4883H89.7678C89.8076 15.0202 89.9716 15.4627 90.26 15.8157C90.5483 16.1687 90.9237 16.4322 91.3861 16.6062C91.8534 16.7802 92.3754 16.8672 92.9521 16.8672C93.5537 16.8672 94.0807 16.7777 94.5331 16.5987C94.9905 16.4148 95.3484 16.1612 95.6069 15.8381C95.8655 15.5099 95.9972 15.1271 96.0022 14.6896C95.9972 14.2919 95.8804 13.9638 95.6517 13.7053C95.423 13.4418 95.1023 13.223 94.6897 13.049C94.282 12.87 93.8047 12.7109 93.2579 12.5717L91.5203 12.1243C90.2625 11.8011 89.2682 11.3114 88.5373 10.6552C87.8115 9.99396 87.4486 9.11648 87.4486 8.02273C87.4486 7.12287 87.6922 6.33487 88.1794 5.65874C88.6716 4.9826 89.3402 4.4581 90.1854 4.08523C91.0306 3.70739 91.9876 3.51847 93.0565 3.51847C94.1403 3.51847 95.0899 3.70739 95.9052 4.08523C96.7255 4.4581 97.3694 4.97763 97.8367 5.64382C98.304 6.30504 98.5451 7.0657 98.5601 7.92578H95.8978ZM103.816 12.2884V19H101.116V7.54545H103.696V9.49183H103.831C104.094 8.8505 104.514 8.34091 105.091 7.96307C105.673 7.58523 106.391 7.39631 107.246 7.39631C108.037 7.39631 108.725 7.56534 109.312 7.90341C109.903 8.24148 110.361 8.73118 110.684 9.37251C111.012 10.0138 111.174 10.7919 111.169 11.7067V19H108.469V12.1243C108.469 11.3587 108.27 10.7596 107.872 10.3271C107.48 9.89453 106.935 9.67827 106.239 9.67827C105.767 9.67827 105.347 9.78267 104.979 9.99148C104.616 10.1953 104.33 10.4911 104.121 10.8789C103.918 11.2667 103.816 11.7365 103.816 12.2884ZM117.209 19.2312C116.483 19.2312 115.83 19.1019 115.248 18.8434C114.671 18.5799 114.214 18.1921 113.876 17.68C113.543 17.168 113.376 16.5366 113.376 15.7859C113.376 15.1396 113.495 14.6051 113.734 14.1825C113.973 13.7599 114.298 13.4219 114.711 13.1683C115.124 12.9148 115.588 12.7234 116.105 12.5941C116.627 12.4599 117.167 12.3629 117.724 12.3033C118.395 12.2337 118.939 12.1715 119.357 12.1168C119.774 12.0572 120.078 11.9677 120.267 11.8484C120.461 11.7241 120.557 11.5327 120.557 11.2741V11.2294C120.557 10.6676 120.391 10.2326 120.058 9.92436C119.725 9.61612 119.245 9.462 118.619 9.462C117.957 9.462 117.433 9.60618 117.045 9.89453C116.662 10.1829 116.404 10.5234 116.269 10.9162L113.749 10.5582C113.948 9.86222 114.276 9.28054 114.733 8.81321C115.191 8.34091 115.75 7.98793 116.411 7.75426C117.072 7.51562 117.803 7.39631 118.604 7.39631C119.155 7.39631 119.705 7.46094 120.252 7.5902C120.799 7.71946 121.298 7.93324 121.751 8.23153C122.203 8.52486 122.566 8.92507 122.839 9.43217C123.118 9.93928 123.257 10.5732 123.257 11.3338V19H120.662V17.4265H120.572C120.408 17.7447 120.177 18.043 119.879 18.3214C119.586 18.5948 119.215 18.8161 118.768 18.9851C118.325 19.1491 117.806 19.2312 117.209 19.2312ZM117.91 17.2475C118.452 17.2475 118.922 17.1406 119.32 16.9268C119.717 16.7081 120.023 16.4197 120.237 16.0618C120.456 15.7038 120.565 15.3136 120.565 14.891V13.5412C120.48 13.6108 120.336 13.6754 120.132 13.7351C119.934 13.7947 119.71 13.8469 119.461 13.8917C119.213 13.9364 118.967 13.9762 118.723 14.011C118.479 14.0458 118.268 14.0756 118.089 14.1005C117.686 14.1552 117.326 14.2447 117.008 14.369C116.69 14.4933 116.439 14.6673 116.255 14.891C116.071 15.1097 115.979 15.3931 115.979 15.7411C115.979 16.2383 116.16 16.6136 116.523 16.8672C116.886 17.1207 117.348 17.2475 117.91 17.2475ZM125.972 23.2955V7.54545H128.626V9.43963H128.783C128.922 9.16122 129.119 8.86541 129.372 8.5522C129.626 8.23402 129.969 7.96307 130.401 7.73935C130.834 7.51065 131.386 7.39631 132.057 7.39631C132.942 7.39631 133.74 7.62251 134.451 8.07493C135.167 8.52237 135.733 9.18608 136.151 10.0661C136.573 10.9411 136.785 12.0149 136.785 13.2876C136.785 14.5455 136.578 15.6143 136.166 16.4943C135.753 17.3743 135.191 18.0455 134.48 18.5078C133.769 18.9702 132.964 19.2013 132.064 19.2013C131.408 19.2013 130.864 19.092 130.431 18.8732C129.999 18.6545 129.651 18.391 129.387 18.0827C129.129 17.7695 128.927 17.4737 128.783 17.1953H128.671V23.2955H125.972ZM128.619 13.2727C128.619 14.0135 128.723 14.6623 128.932 15.2191C129.146 15.7759 129.452 16.2109 129.849 16.5241C130.252 16.8324 130.739 16.9865 131.311 16.9865C131.908 16.9865 132.407 16.8274 132.81 16.5092C133.213 16.1861 133.516 15.7461 133.72 15.1893C133.929 14.6275 134.033 13.9886 134.033 13.2727C134.033 12.5618 133.931 11.9304 133.727 11.3786C133.523 10.8267 133.22 10.3942 132.817 10.081C132.415 9.76776 131.913 9.61115 131.311 9.61115C130.734 9.61115 130.245 9.76278 129.842 10.0661C129.439 10.3693 129.133 10.7944 128.925 11.3413C128.721 11.8881 128.619 12.532 128.619 13.2727Z" fill="#1D388C"/>
</g>
<defs>
<linearGradient id="paint0_linear_689_1136" x1="12.7667" y1="2.26758" x2="12.7667" y2="24.2676" gradientUnits="userSpaceOnUse">
<stop stop-color="#889FED"/>
<stop offset="0.505208" stop-color="#4A5FCA"/>
<stop offset="1" stop-color="#2E3DB3"/>
</linearGradient>
<linearGradient id="paint1_linear_689_1136" x1="8.20097" y1="6.08398" x2="8.20097" y2="19.1807" gradientUnits="userSpaceOnUse">
<stop stop-color="#6176D8"/>
<stop offset="1" stop-color="#3B4BBB"/>
</linearGradient>
<clipPath id="clip0_689_1136">
<rect width="138" height="24" fill="white"/>
</clipPath>
<clipPath id="clip1_689_1136">
<rect y="1" width="22" height="22" rx="3" fill="white"/>
</clipPath>
</defs>
</svg>
