<svg width="250" height="250" viewBox="0 0 250 250" fill="none" xmlns="http://www.w3.org/2000/svg">
<path d="M83.3333 31.25H52.0833C46.558 31.25 41.2589 33.4449 37.3519 37.3519C33.4449 41.2589 31.25 46.558 31.25 52.0833V83.3333M218.75 83.3333V52.0833C218.75 46.558 216.555 41.2589 212.648 37.3519C208.741 33.4449 203.442 31.25 197.917 31.25H166.667M166.667 218.75H197.917C203.442 218.75 208.741 216.555 212.648 212.648C216.555 208.741 218.75 203.442 218.75 197.917V166.667M31.25 166.667V197.917C31.25 203.442 33.4449 208.741 37.3519 212.648C41.2589 216.555 46.558 218.75 52.0833 218.75H83.3333" stroke="url(#paint0_linear_710_1096)" stroke-width="6" stroke-linecap="round" stroke-linejoin="round"/>
<defs>
<linearGradient id="paint0_linear_710_1096" x1="125" y1="31.25" x2="125" y2="218.75" gradientUnits="userSpaceOnUse">
<stop stop-color="#BC89CE"/>
<stop offset="1" stop-color="#3022D4" stop-opacity="0.63"/>
</linearGradient>
</defs>
</svg>
